<svg id="visual" viewBox="0 0 900 600" width="900" height="600" xmlns="http://www.w3.org/2000/svg" xmlns:xlink="http://www.w3.org/1999/xlink" version="1.1"><rect x="0" y="0" width="900" height="600" fill="#3f47fe"></rect><defs><linearGradient id="grad1_0" x1="33.3%" y1="0%" x2="100%" y2="100%"><stop offset="20%" stop-color="#f9b6fe" stop-opacity="1"></stop><stop offset="80%" stop-color="#f9b6fe" stop-opacity="1"></stop></linearGradient></defs><defs><linearGradient id="grad1_1" x1="33.3%" y1="0%" x2="100%" y2="100%"><stop offset="20%" stop-color="#f9b6fe" stop-opacity="1"></stop><stop offset="80%" stop-color="#d58afa" stop-opacity="1"></stop></linearGradient></defs><defs><linearGradient id="grad1_2" x1="33.3%" y1="0%" x2="100%" y2="100%"><stop offset="20%" stop-color="#a064fa" stop-opacity="1"></stop><stop offset="80%" stop-color="#d58afa" stop-opacity="1"></stop></linearGradient></defs><defs><linearGradient id="grad1_3" x1="33.3%" y1="0%" x2="100%" y2="100%"><stop offset="20%" stop-color="#a064fa" stop-opacity="1"></stop><stop offset="80%" stop-color="#3f47fe" stop-opacity="1"></stop></linearGradient></defs><defs><linearGradient id="grad2_0" x1="0%" y1="0%" x2="66.7%" y2="100%"><stop offset="20%" stop-color="#f9b6fe" stop-opacity="1"></stop><stop offset="80%" stop-color="#f9b6fe" stop-opacity="1"></stop></linearGradient></defs><defs><linearGradient id="grad2_1" x1="0%" y1="0%" x2="66.7%" y2="100%"><stop offset="20%" stop-color="#d58afa" stop-opacity="1"></stop><stop offset="80%" stop-color="#f9b6fe" stop-opacity="1"></stop></linearGradient></defs><defs><linearGradient id="grad2_2" x1="0%" y1="0%" x2="66.7%" y2="100%"><stop offset="20%" stop-color="#d58afa" stop-opacity="1"></stop><stop offset="80%" stop-color="#a064fa" stop-opacity="1"></stop></linearGradient></defs><defs><linearGradient id="grad2_3" x1="0%" y1="0%" x2="66.7%" y2="100%"><stop offset="20%" stop-color="#3f47fe" stop-opacity="1"></stop><stop offset="80%" stop-color="#a064fa" stop-opacity="1"></stop></linearGradient></defs><g transform="translate(900, 0)"><path d="M0 432.7C-42.9 417.9 -85.8 403.2 -126.7 389.9C-167.6 376.7 -206.4 365 -251 345.5C-295.5 325.9 -345.8 298.6 -350 254.3C-354.3 210 -312.5 148.7 -318.6 103.5C-324.7 58.3 -378.7 29.2 -432.7 0L0 0Z" fill="#7b54fc"></path><path d="M0 324.5C-32.2 313.4 -64.4 302.4 -95 292.4C-125.7 282.5 -154.8 273.7 -188.2 259.1C-221.7 244.4 -259.3 224 -262.5 190.7C-265.7 157.5 -234.4 111.6 -239 77.6C-243.5 43.7 -284 21.9 -324.5 0L0 0Z" fill="#bd76fa"></path><path d="M0 216.3C-21.5 209 -42.9 201.6 -63.3 195C-83.8 188.3 -103.2 182.5 -125.5 172.7C-147.8 163 -172.9 149.3 -175 127.2C-177.1 105 -156.3 74.4 -159.3 51.8C-162.4 29.2 -189.3 14.6 -216.3 0L0 0Z" fill="#e9a0fb"></path><path d="M0 108.2C-10.7 104.5 -21.5 100.8 -31.7 97.5C-41.9 94.2 -51.6 91.2 -62.7 86.4C-73.9 81.5 -86.4 74.7 -87.5 63.6C-88.6 52.5 -78.1 37.2 -79.7 25.9C-81.2 14.6 -94.7 7.3 -108.2 0L0 0Z" fill="#f9b6fe"></path></g><g transform="translate(0, 600)"><path d="M0 -432.7C28.9 -376 57.8 -319.3 98 -301.5C138.1 -283.6 189.5 -304.6 206.9 -284.8C224.3 -264.9 207.6 -204.3 244.3 -177.5C281.1 -150.7 371.2 -157.7 411.5 -133.7C451.8 -109.7 442.2 -54.9 432.7 0L0 0Z" fill="#7b54fc"></path><path d="M0 -324.5C21.7 -282 43.4 -239.5 73.5 -226.1C103.6 -212.7 142.1 -228.4 155.2 -213.6C168.2 -198.7 155.7 -153.3 183.2 -133.1C210.8 -113 278.4 -118.2 308.6 -100.3C338.8 -82.3 331.7 -41.2 324.5 0L0 0Z" fill="#bd76fa"></path><path d="M0 -216.3C14.5 -188 28.9 -159.7 49 -150.7C69.1 -141.8 94.8 -152.3 103.5 -142.4C112.1 -132.5 103.8 -102.2 122.2 -88.8C140.5 -75.3 185.6 -78.8 205.7 -66.9C225.9 -54.9 221.1 -27.4 216.3 0L0 0Z" fill="#e9a0fb"></path><path d="M0 -108.2C7.2 -94 14.5 -79.8 24.5 -75.4C34.5 -70.9 47.4 -76.1 51.7 -71.2C56.1 -66.2 51.9 -51.1 61.1 -44.4C70.3 -37.7 92.8 -39.4 102.9 -33.4C112.9 -27.4 110.6 -13.7 108.2 0L0 0Z" fill="#f9b6fe"></path></g></svg>